<?xml version="1.0" encoding="UTF-8"?>
<svg width="600" height="600" version="1.1" xmlns="http://www.w3.org/2000/svg" xmlns:xlink="http://www.w3.org/1999/xlink">
 <circle cx="300" cy="300" r="300" fill="#bcdca7"/>
 <path d="m277.54 108.67h44.952v132.52l132.84 242.01h-310.62l132.84-242.01z" fill="#bae9e2"/>
 <path d="m314.28 410.01s-15.311-21.656-29.073-29.799c-13.762-8.1438-52.331-14.537-52.331-14.537s13.732 30.1 28.346 38.522c14.614 8.4216 53.058 5.8146 53.058 5.8146" fill="#397a31"/>
 <path d="m336.08 397.65c-9.3534 2.5554-21.805 11.629-21.805 11.629s20.069 5.2057 29.799 2.9073c9.7303-2.2984 25.439-15.99 25.439-15.99s-24.08-1.1018-33.434 1.4537z" fill="#397a31"/>
 <path d="m314.39 409.8v36.886" fill="none" stroke="#397a31" stroke-linecap="round" stroke-linejoin="round" stroke-width="8"/>
 <path d="m282.4 442.92c-17.992 0.2063-33.737 2.6596-49.945 4.6498-24.126 5.5675-53.557 3.6904-80.327 1.3115l-2.5346 4.8266c-8.3673 16.604-18.459 36.516-2.9765 37.589h306.81c15.483-1.0731 5.3908-20.985-2.9765-37.589l-4.3436-8.2677c-14.602-1.224-30.589-0.75816-44.075 2.5119-21.972 4.1993-46.07 4.1416-72.294-0.16444-17.985-3.8305-33.337-5.0281-47.331-4.8677z" fill="#684b22"/>
 <path d="m252.4 109.66h17.289v127.94l-113.82 216.69c-8.4876 16.842-18.843 37.248 0 36.019h288.28c18.843 1.2296 8.4876-19.177 0-36.019l-113.82-216.69v-127.94h15.349" fill="none" stroke="#92c0b9" stroke-linecap="round" stroke-linejoin="round" stroke-width="25"/>
 <g id="a">
  <circle id="b" cx="274.8" cy="324.49" r="3.0241" fill="#405f6b"/>
  <use transform="translate(69.16 -15.85)" xlink:href="#b"/>
 </g>
 <use transform="rotate(-90 263.56 275.93)" xlink:href="#a"/>
</svg>